<?xml version="1.0" encoding="utf-8"?>
<!-- Generator: Adobe Illustrator 22.1.0, SVG Export Plug-In . SVG Version: 6.00 Build 0)  -->
<svg version="1.1" id="Layer_1" xmlns="http://www.w3.org/2000/svg" xmlns:xlink="http://www.w3.org/1999/xlink" x="0px" y="0px"
	 viewBox="0 0 68.8 10.2" style="enable-background:new 0 0 68.8 10.2;" xml:space="preserve" width="688px" height="102px">
<style type="text/css">
	.st0{fill:#D73E4B;}
</style>
<path d="M0,3.6c0-0.1,0-0.2,0.1-0.2C0.2,3.1,0.3,3,0.4,3c0.1,0,0.1,0,0.2,0.1l4.6,2.2c0.1,0.1,0.2,0.1,0.2,0.2s0.1,0.2,0.1,0.3
	S5.4,6,5.4,6S5.3,6.1,5.2,6.2L0.6,8.4c-0.1,0-0.1,0.1-0.2,0.1c-0.1,0-0.3-0.1-0.3-0.3C0,8.1,0,8,0,7.9c0-0.1,0.1-0.2,0.2-0.3
	l3.9-1.9L0.2,3.9C0.1,3.8,0,3.7,0,3.6z"/>
<path d="M12.1,3.8c0.1,0.1,0.1,0.2,0.1,0.3v4.8c0,0.1,0,0.2-0.1,0.3s-0.2,0.1-0.3,0.1h0c-0.2,0-0.3,0-0.3-0.1S11.4,9,11.4,8.8v-1
	c-0.3,0.4-0.6,0.7-1,1S9.5,9.3,9.1,9.3c-0.6,0-1-0.2-1.4-0.5S7.2,8,7.2,7.4V4.1c0-0.1,0-0.2,0.1-0.3s0.2-0.1,0.3-0.1h0
	c0.2,0,0.3,0,0.3,0.1s0.1,0.2,0.1,0.3v3.2c0,0.4,0.1,0.6,0.3,0.8s0.4,0.3,0.8,0.3c0.3,0,0.7-0.1,1-0.3s0.6-0.5,0.8-0.9
	s0.3-0.8,0.3-1.2v-2c0-0.1,0-0.2,0.1-0.3s0.2-0.1,0.3-0.1h0C11.9,3.7,12,3.7,12.1,3.8z"/>
<path d="M19,4.1c0.3,0.3,0.5,0.8,0.5,1.4v3.3c0,0.1,0,0.2-0.1,0.3S19.2,9.2,19,9.2h0c-0.2,0-0.3,0-0.3-0.1S18.6,9,18.6,8.8V5.6
	c0-0.4-0.1-0.6-0.3-0.8s-0.4-0.3-0.8-0.3c-0.3,0-0.7,0.1-1,0.3S16,5.3,15.7,5.7s-0.3,0.8-0.3,1.2v2c0,0.1,0,0.2-0.1,0.3
	S15.2,9.2,15,9.2h0c-0.2,0-0.3,0-0.3-0.1S14.5,9,14.5,8.8V4.1c0-0.1,0-0.2,0.1-0.3s0.2-0.1,0.3-0.1h0c0.2,0,0.3,0,0.3,0.1
	s0.1,0.2,0.1,0.3v1c0.3-0.4,0.6-0.7,1-1s0.8-0.4,1.2-0.4C18.2,3.6,18.7,3.8,19,4.1z"/>
<path d="M22.5,1.5c0.1,0.1,0.1,0.2,0.1,0.3v3.1c0.3-0.4,0.6-0.7,1-1s0.8-0.4,1.2-0.4c0.6,0,1,0.2,1.4,0.5s0.5,0.8,0.5,1.4v3.3
	c0,0.1,0,0.2-0.1,0.3s-0.2,0.1-0.3,0.1h0c-0.2,0-0.3,0-0.3-0.1S25.8,9,25.8,8.8V5.6c0-0.4-0.1-0.6-0.3-0.8s-0.4-0.3-0.8-0.3
	c-0.3,0-0.7,0.1-1,0.3s-0.6,0.5-0.8,0.9s-0.3,0.8-0.3,1.2v2c0,0.1,0,0.2-0.1,0.3s-0.2,0.1-0.3,0.1h0c-0.2,0-0.3,0-0.3-0.1
	S21.7,9,21.7,8.8v-7c0-0.1,0-0.2,0.1-0.3s0.2-0.1,0.3-0.1h0C22.3,1.4,22.5,1.5,22.5,1.5z"/>
<path d="M33.1,4.1c0.4,0.3,0.6,0.8,0.6,1.5v3.3c0,0.1,0,0.2-0.1,0.3s-0.2,0.1-0.3,0.1h0c-0.2,0-0.3,0-0.3-0.1S32.9,9,32.9,8.8V8.4
	c-0.3,0.3-0.7,0.5-1,0.6s-0.8,0.2-1.2,0.2c-0.4,0-0.7-0.1-1-0.2s-0.5-0.3-0.7-0.6s-0.3-0.6-0.3-0.9c0-0.6,0.2-1.1,0.7-1.4
	s1-0.4,1.7-0.4c0.6,0,1.2,0.1,1.8,0.3V5.6c0-0.4-0.1-0.7-0.3-0.8s-0.6-0.3-1-0.3c-0.3,0-0.6,0-0.9,0.1s-0.6,0.2-0.9,0.3
	C29.6,5,29.5,5,29.5,5c-0.1,0-0.2-0.1-0.3-0.3c0-0.1-0.1-0.2-0.1-0.2c0-0.1,0.1-0.2,0.2-0.3C29.6,4,30,3.9,30.4,3.8s0.8-0.1,1.1-0.1
	C32.2,3.6,32.8,3.8,33.1,4.1z M32.8,7.5V6.9c-0.3-0.1-0.6-0.2-0.9-0.2S31.4,6.6,31,6.6c-0.4,0-0.8,0.1-1.1,0.2s-0.4,0.4-0.4,0.7
	c0,0.3,0.1,0.5,0.3,0.7s0.5,0.2,0.8,0.2C31.5,8.5,32.2,8.1,32.8,7.5z"/>
<path d="M39.8,3.8c0.4,0.1,0.7,0.3,1.1,0.5c0.1,0.1,0.2,0.2,0.2,0.3c0,0.1,0,0.2-0.1,0.3c-0.1,0.2-0.2,0.2-0.3,0.2
	c-0.1,0-0.1,0-0.2-0.1c-0.6-0.4-1.2-0.6-1.9-0.6c-0.4,0-0.7,0.1-1,0.3S37.1,5.1,37,5.4s-0.2,0.6-0.2,1s0.1,0.7,0.2,1
	s0.4,0.5,0.7,0.7s0.6,0.3,1,0.3c0.4,0,0.7-0.1,1-0.2s0.6-0.3,0.9-0.5c0.1-0.1,0.2-0.1,0.2-0.1c0.1,0,0.2,0.1,0.3,0.2
	c0.1,0.1,0.1,0.2,0.1,0.3c0,0.1-0.1,0.2-0.2,0.3c-0.3,0.2-0.7,0.4-1.1,0.6s-0.9,0.2-1.3,0.2c-0.6,0-1.1-0.1-1.5-0.4s-0.8-0.6-1-1
	S35.8,7,35.8,6.5s0.1-1,0.4-1.5s0.6-0.8,1-1s0.9-0.4,1.5-0.4C39.1,3.6,39.5,3.7,39.8,3.8z"/>
<path d="M48.5,8.8c0,0.1-0.1,0.2-0.2,0.3c-0.1,0.1-0.3,0.1-0.4,0.1c-0.1,0-0.2,0-0.2-0.1l-2.2-2.4l-1.1,0.9v1.2c0,0.1,0,0.2-0.1,0.3
	S44.1,9.2,44,9.2h0c-0.2,0-0.3,0-0.3-0.1S43.5,9,43.5,8.8v-7c0-0.1,0-0.2,0.1-0.3s0.2-0.1,0.3-0.1h0c0.2,0,0.3,0,0.3,0.1
	s0.1,0.2,0.1,0.3v4.7l3.1-2.8c0.1-0.1,0.2-0.1,0.3-0.1s0.2,0,0.3,0.1c0.2,0.1,0.2,0.2,0.2,0.3c0,0.1,0,0.2-0.1,0.2l-2.1,1.9l2.3,2.5
	C48.4,8.7,48.5,8.8,48.5,8.8z"/>
<path d="M54.4,4c0.4,0.2,0.7,0.5,0.9,0.9s0.3,0.9,0.4,1.4c0,0.1,0,0.2-0.1,0.3s-0.2,0.1-0.3,0.1h-4.2c0,0.6,0.2,1,0.5,1.3
	s0.7,0.4,1.3,0.4c0.4,0,0.8,0,1.1-0.1s0.7-0.2,1-0.4c0.1,0,0.1-0.1,0.2-0.1c0.1,0,0.1,0,0.2,0.1s0.1,0.1,0.1,0.2c0,0.1,0,0.1,0,0.2
	c0,0.2-0.1,0.3-0.3,0.4c-0.3,0.2-0.7,0.3-1.1,0.4s-0.9,0.1-1.3,0.1c-0.6,0-1-0.1-1.4-0.3s-0.7-0.6-0.9-1S50.2,7,50.2,6.5
	c0-0.6,0.1-1.1,0.4-1.5s0.6-0.8,1-1s0.9-0.4,1.4-0.4C53.6,3.6,54,3.7,54.4,4z M51.8,4.8c-0.3,0.2-0.5,0.6-0.6,1h3.6
	c-0.1-0.4-0.3-0.8-0.6-1S53.5,4.5,53,4.5C52.5,4.5,52.1,4.6,51.8,4.8z"/>
<path d="M62.5,1.5c0.1,0.1,0.1,0.2,0.1,0.3v7c0,0.1,0,0.2-0.1,0.3s-0.2,0.1-0.3,0.1h0c-0.2,0-0.3,0-0.3-0.1S61.8,9,61.8,8.8V8.3
	c-0.2,0.3-0.5,0.6-0.9,0.7s-0.7,0.3-1.1,0.3c-0.5,0-0.9-0.1-1.3-0.3s-0.7-0.6-0.9-1S57.4,7,57.4,6.5s0.1-1.1,0.3-1.5s0.5-0.8,0.9-1
	s0.8-0.3,1.3-0.3c0.7,0,1.4,0.3,1.9,1V1.8c0-0.1,0-0.2,0.1-0.3s0.2-0.1,0.3-0.1h0C62.3,1.4,62.4,1.5,62.5,1.5z M59,4.7
	c-0.3,0.2-0.4,0.4-0.6,0.7s-0.2,0.6-0.2,1s0.1,0.7,0.2,1S58.8,8,59,8.2s0.6,0.2,0.9,0.2s0.7-0.1,0.9-0.2s0.5-0.4,0.6-0.7
	s0.2-0.6,0.2-1.1s-0.1-0.8-0.2-1.1s-0.4-0.5-0.6-0.7s-0.6-0.2-0.9-0.2S59.3,4.6,59,4.7z"/>
<path class="st0" d="M68.6,0.1c0.1,0.1,0.2,0.1,0.2,0.2c0,0,0,0.1,0,0.1L64.8,10c0,0.1-0.1,0.1-0.1,0.2s-0.1,0.1-0.2,0.1
	c-0.2,0-0.3,0-0.4-0.1s-0.2-0.1-0.2-0.2c0,0,0-0.1,0-0.1l3.9-9.6c0-0.1,0.1-0.1,0.1-0.2S68.1,0,68.2,0C68.4,0,68.5,0,68.6,0.1z"/>
<path d="M68.1,7.5c0.1,0.1,0.2,0.2,0.2,0.3v1.1c0,0.1-0.1,0.2-0.2,0.3s-0.3,0.1-0.6,0.1s-0.5,0-0.6-0.1S66.7,9,66.7,8.9V7.8
	c0-0.1,0.1-0.2,0.2-0.3s0.3-0.1,0.6-0.1S68,7.4,68.1,7.5z"/>
</svg>
